<?xml version="1.0" encoding="utf-8"?>
<!-- Generator: Adobe Illustrator 22.1.0, SVG Export Plug-In . SVG Version: 6.00 Build 0)  -->
<svg version="1.1" id="Camada_1" xmlns="http://www.w3.org/2000/svg" xmlns:xlink="http://www.w3.org/1999/xlink" x="0px" y="0px"
	 viewBox="0 0 554.3 180.4" style="enable-background:new 0 0 554.3 180.4;" xml:space="preserve">
<style type="text/css">
	.st0{fill:#373A3C;}
</style>
<title>Ativo 1</title>
<g id="Camada_2_1_">
	<g id="Camada_1-2">
		<path class="st0" d="M143.8,46.8c-1.5-7.1-4.1-14-7.9-20.2c-3.5-5.7-7.9-10.9-13.1-15.1c-5-4.1-10.7-7.1-16.8-9.1
			c-6.2-2-12.6-2.7-19.1-2.2c-7.7,0.3-15.4,1.9-22.6,4.7c-7,2.7-13.6,6.2-19.7,10.6C38.5,19.8,32.9,25,28,30.8
			c-4.9,5.8-9.3,12.2-13,18.9c-3.7,6.8-6.8,13.9-9.2,21.2c-2.4,7.2-4.1,14.7-5,22.3c-1.1,3.9-1,8,0.4,11.8c1.1,3.4,3.1,6.5,5.6,9.1
			c2.1,2.1,4.8,3.6,7.8,4c2.8,0.3,5-0.9,6.8-3.8c-0.9-5.1-0.5-11.5,1.3-19.2c2-8.3,4.7-16.4,8.3-24.2c3.9-8.6,8.5-16.8,13.9-24.6
			c5.1-7.5,11.2-14.4,18-20.4c-2.8,8.4-5.6,17.7-8.5,27.8c-2.9,10.1-5.5,20.4-7.9,30.9s-4.5,20.8-6.2,30.8
			c-1.6,9.1-2.7,18.3-3.3,27.6c0,1.2,0.8,2.9,2.5,5c1.7,2.2,3.5,4.2,5.5,6.1c1.7,1.6,3.5,3,5.6,4.1c1.7,0.9,2.7,0.8,2.9-0.4v0.1
			c1.5-9.2,3.3-18.7,5.4-28.5s4.5-19.6,7.2-29.5c2.7-9.9,5.6-19.9,8.7-29.8S81.3,50.4,85,40.8c0.3-2-0.2-4-1.3-5.7
			c-1.2-2.1-2.7-4-4.4-5.6c-1.8-1.7-3.8-3.3-5.9-4.7c-1.7-1.2-3.6-2.2-5.6-2.9c3.3-2.4,6.9-4.4,10.8-6c3.6-1.5,7.4-2.4,11.2-2.7
			c3.9,0.1,7.7,1,11.2,2.8c3.7,1.8,7,4.3,9.8,7.3c3.1,3.3,5.6,7,7.5,11c2.1,4.4,3.5,9.1,4.3,13.9c1.2,8.2,1.1,16.4-0.2,24.6
			c-1.3,8.6-3.6,17-6.7,25.1c-3.1,8.3-7.1,16.2-11.7,23.7c-4.4,7.2-9.4,13.9-15,20.2c-5,5.6-10.6,10.7-16.7,15
			c-5.8,4-11.3,6.6-16.6,7.7c-2.9,0.3-5.8,0-8.5-1c-3.1-1.1-6-2.7-8.4-4.9c-2.8-2.5-5.3-5.4-7.2-8.6c-2.3-3.8-3.9-7.8-5-12.1
			c-1.7-1.3-3.8-1.9-5.9-1.7c-2.4,0.1-4.8,0.8-6.8,2c-2.1,1.2-3.8,2.9-5,5c-1.2,2.3-1.4,5-0.4,7.4c2.5,5.1,5.7,9.8,9.7,13.9
			c3.6,3.7,7.7,6.9,12.2,9.4c4.1,2.3,8.5,4.1,13,5.2c4,1,8.1,1.4,12.3,1.3c8.9-0.4,17.6-2.9,25.4-7.1c8.4-4.5,16.1-10.2,22.9-16.9
			c7.2-7.2,13.6-15.2,19-23.8c5.6-8.8,10.3-18.2,13.9-28.1c3.6-9.5,6-19.5,7.4-29.6C145.3,65.6,145.3,56.1,143.8,46.8z"/>
		<path class="st0" d="M264.4,100.9c2.3-5,4.3-9.2,5.9-12.6c0.3-0.7-0.1-2.1-1.1-4.1c-1.1-2.1-2.4-4.1-3.8-5.9
			c-1.3-1.7-2.7-3.4-4.2-4.9c-1.4-1.3-2.2-1.7-2.5-1.1c0.2,2.1-0.4,5.3-1.9,9.6c-1.7,4.8-3.6,9.6-5.8,14.2
			c-2.4,5.2-5.1,10.6-8.2,16.2s-6.1,10.7-9,15.3c-2.5,4.1-5.4,8-8.4,11.7c-2.7,3.2-4.8,4.9-6.4,5.2c0.3-0.3,0.9-1.9,1.6-4.7
			c0.8-2.9,1.8-6.4,2.9-10.5c1.1-4.2,2.2-8.6,3.4-13.4s2.2-9.2,3.2-13.2c0.8-3.1,1.5-5.9,2.1-8.3c0.6-2.4,1-4.2,1.2-5.3
			c0.2-2.5-0.5-5-2-7.1c-1.6-2.4-3.6-4.6-5.8-6.5c-2.1-1.8-4.4-3.2-6.9-4.2c-2.4-0.9-4.1-1-5.3-0.3l-1.2,2.1c-0.2,2.5-0.5,5.3-1,8.5
			s-1,6.5-1.7,10.1s-1.4,7.3-2.3,11.1c-0.4,2-0.8,3.9-1.3,5.9c-0.6,1.6-1.2,3.3-1.8,5c-1,2.6-2,5-3.1,7.4c-2,4.1-4.3,8.1-7,11.8
			c-2.2,3-4.8,5.7-7.7,8.1c-2.3,1.9-4.8,3.3-7.6,4.3c-2.2,0.8-4.6,0.9-6.8,0.4l0.3,0.1c-2.5-0.5-4.6-2.1-5.8-4.4
			c-1.4-2.4-2.5-5-3.1-7.7c8.2-2.8,15.7-7.4,21.9-13.4c6.4-6.3,11.1-14,13.9-22.6v0.2c0.9-2.1,1.6-4.3,1.9-6.6
			c0.3-2,0.2-4.1-0.1-6.1c-0.5-4.1-2.4-7.9-5.5-10.8c-3-2.7-6.8-4.1-10.8-4.1c-4-0.1-7.9,0.6-11.6,2.1c-3.7,1.5-7.1,3.5-10.3,5.9
			c-3.1,2.3-5.9,5-8.4,7.9c-2.1,2.5-4,5.1-5.6,8c-3.5,6.7-6.1,13.8-7.7,21.2c-1.4,6.6-1.4,13.4-0.1,20c1.5,7.8,4.7,14,9.7,18.5
			c5,4.5,11.4,6.8,19.2,6.9c1.2,0,2.8-0.1,4.9-0.2c2.3-0.2,4.6-0.7,6.8-1.4c2.7-0.8,5.4-2,7.8-3.5c2.9-1.7,5.6-4,7.8-6.5
			c0.8-1,1.6-2.1,2.4-3.1c0,0.4,0.1,0.8,0.1,1.1c0.8,4.6,2.4,8.1,4.9,10.5c2.1,2.3,5.1,3.6,8.2,3.6c4.2,0,8.2-1.4,11.6-3.8
			c4.2-3,8.1-6.5,11.4-10.5c3.9-4.6,7.5-9.4,10.8-14.5c3.5-5.4,6.7-10.8,9.6-16.3S262,105.8,264.4,100.9z M166.2,110.2
			c1.3-3.8,2.9-7.5,5-10.9c2-3.3,4.4-6.3,7.1-8.9c2.5-2.4,5.6-4.1,9-4.8c1.2-0.4,2,0.1,2.3,1.5c0.1,0.7,0.1,1.4,0.1,2.1
			c-0.1,0.8-0.2,1.6-0.5,2.4v-0.2c-1.9,6.6-5.3,12.7-9.9,17.8c-4.5,4.9-9.9,9-15.9,11.8C164,117.4,165,113.7,166.2,110.2
			L166.2,110.2z"/>
		<path class="st0" d="M416,100.8c-0.1-0.8-0.3-1.6-0.5-2.4c-1.6-5.2-3.8-9.2-6.5-11.9c-1.5-3.9-3.7-7.4-6.6-10.5
			c-2.8-3.1-6.6-5.2-10.8-5.9c-4.2-0.3-8.3,0.3-12.3,1.7c-3.9,1.5-7.6,3.6-10.8,6.3c-3.4,2.8-6.4,6.1-8.9,9.8
			c-5.2,7.6-8.6,16.3-9.8,25.5c0,0.3-0.1,0.6-0.1,0.9c-1,2.4-1.9,4.9-3,7.4c-1.3,3.2-2.8,6.2-4.5,9.2c-1.6,2.7-3.4,5.3-5.6,7.7
			c-1.9,2.2-4.3,3.8-7,4.9h-1v-1.2c-0.4-2.8-0.4-5.6,0-8.4c0.4-3.5,1-7.3,1.9-11.5s1.9-8.5,3-12.9c1.1-4.5,2.3-8.7,3.5-12.8
			c1.2-4.1,2.2-7.7,3.2-11.1c1-3.3,1.8-5.9,2.4-7.8l0.6-2l4.1-13.7c3.3-0.8,6.7-1.4,10.1-1.8c3.4-0.4,6.8-0.6,10.2-0.6
			c1.1,0,2.2,0,3.3,0.1s2.2,0.1,3.3,0.2c1.3,0,2.4-0.6,3.2-1.7c0.9-1.2,1.7-2.5,2.1-4c0.5-1.6,0.7-3.3,0.7-5c0-1.7-0.4-3.4-1.1-4.9
			c-1-0.1-2.3-0.2-4-0.2s-3-0.1-4-0.1c-6.4,0-12.8,0.6-19.1,1.8c0.5-1.7,0.9-3.2,1.1-4.5s0.5-2.4,0.7-3.2c0.1-2.5-0.7-4.9-2.3-6.8
			c-1.7-2.4-3.7-4.5-6-6.3c-2.1-1.7-4.6-3.1-7.1-4c-2.5-0.8-4.3-0.9-5.6-0.1c-0.4,4.8-1.1,10-2.1,15.5s-2.3,11.6-4,18.2
			c-7,3.6-13.7,7.9-19.9,12.8c-0.3,0.2-0.5,0.4-0.7,0.7c-0.5-0.6-1-1.1-1.6-1.6c-2-1.8-4.3-3.4-6.6-4.8c-2.5-1.5-4.5-2.6-6.2-3.4
			c-3.1,3.3-5.8,6.9-8.1,10.8c-1.7,3.1-3.2,6-4.5,8.7l-2.4,4.8c-2.4,4.4-4.6,9-6.6,13.7c-2,4.7-4,9.5-5.9,14.3l-2.4,5.4
			c-2.7,2.6-4.7,6-5.6,9.6c-1.1,4-1.4,8.2-0.8,12.3c0.5,3,1.4,5.9,2.8,8.6c1.4,2.7,3.2,5.2,5.4,7.2c2.4,2.2,5.1,4,8.1,5.3
			c3.5,1.5,7.1,2.3,10.9,2.6c3.6,0.3,7.2-0.3,10.6-1.7c3.1-1.3,5.7-3.3,7.7-5.9c2.1-2.8,3.5-6.1,4.1-9.6c0.7-4.1,0.6-8.3-0.3-12.4
			l-1.8-9c-0.5-2.2-1-4.4-1.5-6.6s-0.9-4.3-1.2-6.4c-0.6-3.8-0.8-7.7-0.7-11.6c0.1-3.8,0.9-7.6,2.3-11.1l1.4-3
			c0.5-1.2,1.1-2.3,1.7-3.5c0.8-1.2,1.7-2.4,2.6-3.6c0.2,0.1,0.5,0.3,0.7,0.4c1.4,0.6,3.1,0.6,4.5,0l0.5-0.2
			c1.4-0.9,2.8-1.8,4.2-2.6c1.4-0.8,2.8-1.7,4.2-2.5l-1,3c-2.9,9.5-5.6,19.3-8,29.3c-2.4,10-3.6,20.3-3.5,30.5c0,1,0,2.1,0.1,3.4
			c0,1.2,0.2,2.4,0.4,3.5c0.6,4.6,2.3,9.1,5,12.9c2.4,3.4,6.4,5.5,10.6,5.6c1.9,0,3.8-0.3,5.6-0.8c1.6-0.5,3.2-1.2,4.7-2
			c1.3-0.8,2.6-1.6,3.8-2.6c1-0.8,1.9-1.7,2.7-2.6c4-4.7,7.3-9.9,10-15.4l0.7-1.4c3,7.9,7.1,13.9,12.4,17.9
			c5.2,4.1,11.6,6.4,18.2,6.5c3.6,0,7.1-0.8,10.2-2.4c3.3-1.7,6.3-3.9,8.9-6.5c2.8-2.9,5.2-6.2,7.1-9.8c2-3.8,3.7-7.8,5-11.9
			c1.4-4.2,2.3-8.6,2.7-13c0.4-4.4,0.2-8.8-0.5-13.2C416.3,102.5,416.1,101.6,416,100.8z M286,140.5c-0.1,1.5-0.4,2.9-1,4.2
			c-0.5,1.1-1.3,2.1-2.3,2.9c-1.2,0.7-2.6,1-3.9,0.8c-1.6-0.3-3.2-0.7-4.7-1.4c-1.7-0.8-3.2-2-4.2-3.5c-0.4-0.7-0.8-1.4-1.1-2.2
			c-0.3-0.6-0.5-1.2-0.7-1.9c-0.2-1.4,0.2-2.7,1-3.8c0.8-1.2,1.9-2.2,3.2-2.9c1.3-0.7,2.7-0.9,4.1-0.7c1.6,0.3,3.1,1.4,3.9,2.8
			c0.8-1.3,1.1-2.8,0.8-4.3c-0.2-2.1-0.6-4.2-1.2-6.2c-0.6-2.2-1.4-4.2-2.2-6.2c-0.6-1.4-1.2-2.8-2-4.1l0.1-0.2l3.5-8.4
			c0.1,0.8,0.2,1.6,0.2,2.5c0,0.8,0.2,1.7,0.4,2.5c0.4,2.4,0.9,4.8,1.4,7.1s1.1,4.5,1.6,6.6s1,4,1.5,5.9c0.5,1.9,0.9,3.8,1.2,5.6
			C285.9,137.1,286,138.8,286,140.5L286,140.5z M404.5,113.3c-0.7,5-2.2,9.9-4.2,14.6c-1.8,4.2-4.3,8-7.5,11.3c-3,3-6.3,4.4-9.9,4.2
			c-3.1-0.1-6.1-1.6-7.9-4.1c-2-2.8-3.2-6.1-3.5-9.6c-0.5-3-0.7-6.1-0.5-9.1c0.2-3.3,0.7-6.6,1.4-9.8c0.7-3.3,1.8-6.5,3.2-9.6
			c1.3-2.9,2.9-5.7,4.7-8.3c1.8-2.3,4-4.2,6.4-5.8c2-1.4,4.3-2.3,6.8-2.6c0.8-0.1,1.5,0.1,2.3,0.3c-0.7,0.5-1.4,1-2,1.5
			c-0.9,0.7-1.7,1.6-2.4,2.5c-0.8,1-1.5,2.1-2,3.3c-0.5,1.2-0.8,2.5-0.7,3.8c0.1,1.1,0.3,2.4,0.5,3.9c0.2,1.5,0.6,2.9,1.1,4.3
			c0.4,1.3,0.9,2.5,1.6,3.7c0.4,1,1.3,1.7,2.3,2.1l3.6-2.6c0-0.9,0.2-1.9,0.6-2.7c0.4-1,1-2,1.7-2.8c0.7-0.9,1.4-1.6,2.3-2.3
			c0.7-0.6,1.5-1,2.4-1v0.8C405.3,103.8,405.3,108.6,404.5,113.3L404.5,113.3z"/>
		<path class="st0" d="M553.8,108.5c-0.6-1.3-1.5-2.4-2.7-3.2c-1.1-0.7-2.4-1.1-3.8-1c-1.3,0.1-2.5,0.9-3.1,2.1
			c-0.8,2.3-1.7,4.7-2.6,7.3c-1,2.6-2,5-3.1,7.4c-2,4.1-4.3,8.1-7.1,11.8c-2.2,3-4.8,5.7-7.7,8.1c-2.3,1.9-4.8,3.3-7.6,4.3
			c-2.2,0.8-4.6,0.9-6.9,0.4l0.3,0.1c-2.5-0.5-4.6-2.1-5.8-4.4c-1.4-2.4-2.5-5-3.1-7.7c8.2-2.8,15.7-7.4,21.9-13.4
			c6.4-6.3,11.1-14,13.9-22.6v0.2c0.9-2.1,1.6-4.3,1.9-6.6c0.2-2,0.2-4.1-0.1-6.1c-0.5-4.1-2.4-7.9-5.5-10.8
			c-3-2.7-6.8-4.1-10.8-4.1c-4-0.1-7.9,0.6-11.6,2.1c-3.7,1.5-7.2,3.5-10.3,5.9c-3.1,2.3-5.9,5-8.4,7.9c-2.1,2.5-4,5.1-5.6,8
			c-3.5,6.7-6.1,13.8-7.8,21.2c-0.1,0.3-0.1,0.7-0.2,1c-1,2.4-2,4.8-3.2,7.2h0.1c-1.1,2.4-2.4,4.8-4,6.9c-1.4,2-3,3.8-4.7,5.5
			c-1.4,1.4-3,2.6-4.7,3.6c-1.2,0.8-2.5,1.2-3.9,1.2c-1.2,0-1.8-0.3-1.8-0.9c-0.2-1.5,0-3,0.4-4.5c0.5-1.9,1.1-3.7,1.8-5.5
			c0.8-1.9,1.6-3.7,2.5-5.5s1.8-3.4,2.5-4.8c1-1.9,2-3.8,3-5.6s2.1-3.6,3.2-5.4c1.8-3.3,3.5-6.6,5.2-9.7c1.5-2.9,2.8-5.9,3.9-9
			c0.9-2.5,1.4-5.1,1.4-7.7c0.1-2.2-0.6-4.3-2-6.1c-0.2-0.2-0.7-0.6-1.6-1.3s-1.9-1.4-3-2.1s-2.3-1.4-3.3-2
			c-0.7-0.5-1.6-0.8-2.5-0.9c-0.8,1.1-1.7,2.1-2.7,3c-1.4,1.3-3,2.7-4.7,4.2c-1.8,1.5-3.6,3-5.5,4.5s-3.6,2.8-5.2,3.9
			c-1.2,0.9-2.4,1.6-3.6,2.3c-0.9,0.4-1.1,0.4-0.8-0.2l4.1-6.8c0.3-1.2,0.5-2.4,0.5-3.7c0.1-1,0-2-0.2-2.9c-0.3-1.8-1-3.6-2-5.1
			c-1-1.5-2.2-2.9-3.7-4c-1.5-1.2-3.1-2.2-4.7-3l-5-2.5c-0.3,2-0.8,3.9-1.4,5.9c-0.5,1.6-1,3.1-1.5,4.4c-1.3,3.2-2.4,6-3.3,8.4
			c-0.9,2.7-1.1,5.5-0.6,8.3c0.2,2.3,1.2,4.5,2.6,6.2l-7.2,17.4v-0.2c-0.3,0.7,0,1.5,0.8,2.5c0.8,1,1.8,1.9,2.9,2.6
			c1,0.7,2.2,1.2,3.4,1.6c1.1,0.3,1.8,0.2,2-0.4l0.1,0.2c1.2-2.9,2.5-6,3.8-9.3c1.3-3.3,2.8-6.6,4.5-10h1.4c1.5,0.1,3,0,4.5-0.3
			l3.6-0.9c0.7-0.2,1.4-0.4,2.1-0.5c0.8-0.2,1.9-0.4,3.2-0.7c-2,0.5-3.8,1.3-5.4,2.6c-1,0.8-1.7,1.9-2.3,3l-2.7,5.1v-0.2l-2.3,4.2
			c-1.4,2.6-2.7,5.2-3.9,7.7c-1.2,2.5-2.2,5-3.1,7.7c-0.9,2.7-1.5,5.5-1.9,8.3c-0.4,3.1-0.4,6.2,0,9.3c0.3,2.3,0.9,4.5,1.8,6.6
			c0.9,2,2,3.9,3.5,5.6c1.4,1.6,3.1,3,5,4c2,1,4.2,1.6,6.5,1.6c3.9,0.2,7.9-0.6,11.4-2.4c3.5-1.9,6.7-4.3,9.5-7.1
			c2.9-2.9,5.5-6.2,7.7-9.7c0.3-0.4,0.5-0.8,0.7-1.2c1.5,5.4,4.5,10.2,8.6,14.1c5,4.5,11.4,6.8,19.2,6.8c1.2,0,2.8-0.1,4.9-0.2
			c2.3-0.2,4.6-0.7,6.8-1.4c2.7-0.8,5.4-2,7.8-3.5c2.9-1.7,5.6-4,7.8-6.5c4.1-4.9,7.5-10.2,10.4-15.9c2.7-5.5,5-10.5,6.8-15l2-5.4
			C554.5,111.6,554.4,110,553.8,108.5z M503.6,110.2c1.3-3.8,2.9-7.5,5-10.9c1.9-3.3,4.4-6.3,7.1-8.9c2.5-2.4,5.6-4.1,9-4.8
			c1.2-0.4,2,0.1,2.3,1.5c0.1,0.7,0.1,1.4,0.1,2.1c-0.1,0.8-0.2,1.6-0.5,2.4v-0.2c-1.9,6.6-5.3,12.7-9.9,17.8
			c-4.5,4.9-9.9,9-15.9,11.8C501.4,117.4,502.3,113.7,503.6,110.2z"/>
	</g>
</g>
</svg>
